<mxfile host="app.diagrams.net" modified="2023-07-18T12:47:29.220Z" agent="Mozilla/5.0 (Windows NT 10.0; Win64; x64) AppleWebKit/537.36 (KHTML, like Gecko) Chrome/114.0.0.0 Safari/537.36" etag="vOdcKIOlKxZOkFbouM6b" version="21.6.1" type="device">
  <diagram name="Page-1" id="qjpE4YGFM8KmCApll63P">
    <mxGraphModel dx="2603" dy="1583" grid="1" gridSize="10" guides="1" tooltips="1" connect="1" arrows="1" fold="1" page="1" pageScale="1" pageWidth="1169" pageHeight="827" math="0" shadow="0">
      <root>
        <mxCell id="0" />
        <mxCell id="1" parent="0" />
        <mxCell id="2" value="Data Diagram" style="rounded=1;absoluteArcSize=1;arcSize=14;whiteSpace=wrap;strokeWidth=2;" parent="1" vertex="1">
          <mxGeometry width="112" height="34" as="geometry" />
        </mxCell>
        <mxCell id="dzQTFHioQvIF_rcnhzuz-2" value="Binance" style="rounded=0;whiteSpace=wrap;html=1;" vertex="1" parent="1">
          <mxGeometry x="200" width="120" height="60" as="geometry" />
        </mxCell>
        <mxCell id="dzQTFHioQvIF_rcnhzuz-3" style="edgeStyle=orthogonalEdgeStyle;rounded=0;orthogonalLoop=1;jettySize=auto;html=1;exitX=0;exitY=0.5;exitDx=0;exitDy=0;" edge="1" parent="1" source="dzQTFHioQvIF_rcnhzuz-4" target="dzQTFHioQvIF_rcnhzuz-16">
          <mxGeometry relative="1" as="geometry" />
        </mxCell>
        <mxCell id="dzQTFHioQvIF_rcnhzuz-4" value="Uniswap&lt;br&gt;(API&lt;br&gt;bulk date range)" style="rounded=0;whiteSpace=wrap;html=1;" vertex="1" parent="1">
          <mxGeometry x="130" y="90" width="120" height="60" as="geometry" />
        </mxCell>
        <mxCell id="dzQTFHioQvIF_rcnhzuz-5" value="Etherscan&lt;br&gt;(API&lt;br&gt;transaction lookup)" style="rounded=0;whiteSpace=wrap;html=1;" vertex="1" parent="1">
          <mxGeometry x="270" y="90" width="120" height="60" as="geometry" />
        </mxCell>
        <mxCell id="dzQTFHioQvIF_rcnhzuz-6" value="Block Number + Pool transactions" style="rounded=0;whiteSpace=wrap;html=1;" vertex="1" parent="1">
          <mxGeometry x="130" y="190" width="260" height="30" as="geometry" />
        </mxCell>
        <mxCell id="dzQTFHioQvIF_rcnhzuz-7" style="edgeStyle=orthogonalEdgeStyle;rounded=0;orthogonalLoop=1;jettySize=auto;html=1;exitX=0.5;exitY=1;exitDx=0;exitDy=0;entryX=0.5;entryY=0;entryDx=0;entryDy=0;" edge="1" parent="1" source="dzQTFHioQvIF_rcnhzuz-8" target="dzQTFHioQvIF_rcnhzuz-6">
          <mxGeometry relative="1" as="geometry">
            <Array as="points">
              <mxPoint x="190" y="180" />
              <mxPoint x="260" y="180" />
            </Array>
          </mxGeometry>
        </mxCell>
        <mxCell id="dzQTFHioQvIF_rcnhzuz-8" value="basic cleaning" style="rounded=0;whiteSpace=wrap;html=1;" vertex="1" parent="1">
          <mxGeometry x="130" y="150" width="120" height="20" as="geometry" />
        </mxCell>
        <mxCell id="dzQTFHioQvIF_rcnhzuz-9" style="edgeStyle=orthogonalEdgeStyle;rounded=0;orthogonalLoop=1;jettySize=auto;html=1;exitX=0.5;exitY=1;exitDx=0;exitDy=0;entryX=0.5;entryY=0;entryDx=0;entryDy=0;" edge="1" parent="1" source="dzQTFHioQvIF_rcnhzuz-10" target="dzQTFHioQvIF_rcnhzuz-6">
          <mxGeometry relative="1" as="geometry">
            <Array as="points">
              <mxPoint x="330" y="180" />
              <mxPoint x="260" y="180" />
            </Array>
          </mxGeometry>
        </mxCell>
        <mxCell id="dzQTFHioQvIF_rcnhzuz-10" value="basic cleaning" style="rounded=0;whiteSpace=wrap;html=1;" vertex="1" parent="1">
          <mxGeometry x="270" y="150" width="120" height="20" as="geometry" />
        </mxCell>
        <mxCell id="dzQTFHioQvIF_rcnhzuz-11" style="edgeStyle=orthogonalEdgeStyle;rounded=0;orthogonalLoop=1;jettySize=auto;html=1;exitX=0.5;exitY=1;exitDx=0;exitDy=0;entryX=0.5;entryY=0;entryDx=0;entryDy=0;" edge="1" parent="1" source="dzQTFHioQvIF_rcnhzuz-12" target="dzQTFHioQvIF_rcnhzuz-14">
          <mxGeometry relative="1" as="geometry" />
        </mxCell>
        <mxCell id="dzQTFHioQvIF_rcnhzuz-12" value="basic cleaning and pre-processing" style="rounded=0;whiteSpace=wrap;html=1;" vertex="1" parent="1">
          <mxGeometry x="130" y="220" width="260" height="20" as="geometry" />
        </mxCell>
        <mxCell id="dzQTFHioQvIF_rcnhzuz-13" style="edgeStyle=orthogonalEdgeStyle;rounded=0;orthogonalLoop=1;jettySize=auto;html=1;exitX=0.5;exitY=1;exitDx=0;exitDy=0;entryX=0.5;entryY=0;entryDx=0;entryDy=0;" edge="1" parent="1" source="dzQTFHioQvIF_rcnhzuz-14" target="dzQTFHioQvIF_rcnhzuz-18">
          <mxGeometry relative="1" as="geometry">
            <Array as="points">
              <mxPoint x="260" y="310" />
              <mxPoint x="180" y="310" />
            </Array>
          </mxGeometry>
        </mxCell>
        <mxCell id="dzQTFHioQvIF_rcnhzuz-14" value="Build intervals for reference mint operations (independent variables)" style="rounded=0;whiteSpace=wrap;html=1;" vertex="1" parent="1">
          <mxGeometry x="130" y="260" width="260" height="40" as="geometry" />
        </mxCell>
        <mxCell id="dzQTFHioQvIF_rcnhzuz-15" style="edgeStyle=orthogonalEdgeStyle;rounded=0;orthogonalLoop=1;jettySize=auto;html=1;exitX=0.5;exitY=1;exitDx=0;exitDy=0;entryX=0.5;entryY=0;entryDx=0;entryDy=0;" edge="1" parent="1" source="dzQTFHioQvIF_rcnhzuz-16" target="dzQTFHioQvIF_rcnhzuz-18">
          <mxGeometry relative="1" as="geometry">
            <Array as="points">
              <mxPoint x="40" y="310" />
              <mxPoint x="180" y="310" />
            </Array>
          </mxGeometry>
        </mxCell>
        <mxCell id="dzQTFHioQvIF_rcnhzuz-16" value="Build base horizon table" style="rounded=0;whiteSpace=wrap;html=1;" vertex="1" parent="1">
          <mxGeometry x="-30" y="260" width="140" height="40" as="geometry" />
        </mxCell>
        <mxCell id="dzQTFHioQvIF_rcnhzuz-17" style="edgeStyle=orthogonalEdgeStyle;rounded=0;orthogonalLoop=1;jettySize=auto;html=1;exitX=0.5;exitY=1;exitDx=0;exitDy=0;entryX=0.5;entryY=0;entryDx=0;entryDy=0;" edge="1" parent="1" source="dzQTFHioQvIF_rcnhzuz-18" target="dzQTFHioQvIF_rcnhzuz-20">
          <mxGeometry relative="1" as="geometry" />
        </mxCell>
        <mxCell id="dzQTFHioQvIF_rcnhzuz-18" value="dataset with target variables (with horizon dimension) and&lt;br&gt;41 independent variables" style="rounded=0;whiteSpace=wrap;html=1;" vertex="1" parent="1">
          <mxGeometry x="-30" y="330" width="420" height="50" as="geometry" />
        </mxCell>
        <mxCell id="dzQTFHioQvIF_rcnhzuz-19" value="not yet started" style="rounded=0;whiteSpace=wrap;html=1;fillColor=#f5f5f5;fontColor=#333333;strokeColor=#666666;" vertex="1" parent="1">
          <mxGeometry x="200" y="60" width="120" height="20" as="geometry" />
        </mxCell>
        <mxCell id="dzQTFHioQvIF_rcnhzuz-20" value="OLS Model" style="rhombus;whiteSpace=wrap;html=1;fillColor=#fff2cc;strokeColor=#d6b656;" vertex="1" parent="1">
          <mxGeometry x="130" y="400" width="100" height="80" as="geometry" />
        </mxCell>
      </root>
    </mxGraphModel>
  </diagram>
</mxfile>
